<svg xmlns="http://www.w3.org/2000/svg" viewBox="0 0 25.43 11.82"><title>THE-BOLD_AND_CURIOUS_LOGO</title><g id="Layer_2" data-name="Layer 2"><g id="Layer_1-2" data-name="Layer 1"><g id="Layer_2-2" data-name="Layer 2"><g id="Layer_1-2-2" data-name="Layer 1-2"><path d="M4.18,7.41a1.33,1.33,0,0,1,.4-.34l.06,0a1.12,1.12,0,0,1-.18-.28.67.67,0,0,1-.07-.29A.57.57,0,0,1,4.59,6a.79.79,0,0,1,.52-.17A.7.7,0,0,1,5.59,6a.56.56,0,0,1,.19.44.62.62,0,0,1-.11.39,1.12,1.12,0,0,1-.34.28l.39.47a.78.78,0,0,0,.1-.21.8.8,0,0,0,0-.24h.47a1.48,1.48,0,0,1-.12.5A1.42,1.42,0,0,1,6,7.95l.5.59H5.88l-.19-.23a1.19,1.19,0,0,1-.25.19,1.05,1.05,0,0,1-.5.11.86.86,0,0,1-.65-.25.75.75,0,0,1-.24-.54A.72.72,0,0,1,4.18,7.41Zm.5.65A.39.39,0,0,0,5,8.18a.54.54,0,0,0,.25-.06A.75.75,0,0,0,5.4,8l-.5-.62a.92.92,0,0,0-.26.23.4.4,0,0,0-.07.22.34.34,0,0,0,.12.25Zm.23-1.45.15.19.16-.13a.31.31,0,0,0,.09-.22.22.22,0,0,0-.06-.15.22.22,0,0,0-.17-.07.25.25,0,0,0-.14,0,.2.2,0,0,0-.09.18.28.28,0,0,0,.07.15Z"/><path d="M7.61,7a1.11,1.11,0,0,1,.81-.39,1.12,1.12,0,0,1,1,.39,1,1,0,0,1,.22.5l-.56,0a.77.77,0,0,0-.16-.29A.62.62,0,0,0,8,7.39a1.22,1.22,0,0,0-.12.72,1.07,1.07,0,0,0,.23.65.58.58,0,0,0,.48.19A.53.53,0,0,0,9,8.72a.85.85,0,0,0,.12-.32l.56,0a1.22,1.22,0,0,1-.32.75,1.08,1.08,0,0,1-.75.33,1.15,1.15,0,0,1-.93-.31,1.5,1.5,0,0,1-.4-1A1.5,1.5,0,0,1,7.61,7Z"/><path d="M10.72,6.53l.56.12-.34,1.63a.94.94,0,0,0,0,.41.43.43,0,0,0,.39.31.44.44,0,0,0,.48-.13,1,1,0,0,0,.14-.38l.34-1.63.56.12-.34,1.63a1.4,1.4,0,0,1-.26.63,1,1,0,0,1-1,.25,1,1,0,0,1-.85-.63,1.4,1.4,0,0,1,0-.69Z"/><path d="M14.83,8.1a.67.67,0,0,1,.25.19.84.84,0,0,1,.14.23.75.75,0,0,1,0,.28.81.81,0,0,1-.1.38.55.55,0,0,1-.32.25.5.5,0,0,1,.27.22.89.89,0,0,1,.07.43v.18a1.35,1.35,0,0,0,0,.25.23.23,0,0,0,.1.15v.09h-.62l0-.15a1.33,1.33,0,0,1,0-.23v-.25a.5.5,0,0,0-.09-.37.46.46,0,0,0-.32-.09h-.55v1.06h-.56l0-2.71h1.3A1.18,1.18,0,0,1,14.83,8.1Zm-1.17.4v.73h.61a.65.65,0,0,0,.27,0,.3.3,0,0,0,.16-.31.34.34,0,0,0-.15-.33.56.56,0,0,0-.25-.05Z"/><path d="M16.62,11.77l-.56.05-.25-2.7.56-.05Z"/><path d="M19.18,11.16a1.41,1.41,0,0,1-1.76-.22,1.46,1.46,0,0,1-.27-1.16,1.44,1.44,0,0,1,.55-1.06,1.41,1.41,0,0,1,1.76.22,1.44,1.44,0,0,1,.27,1.16A1.47,1.47,0,0,1,19.18,11.16Zm-.3-.45a1.11,1.11,0,0,0,.28-.68,1.11,1.11,0,0,0-.11-.73.65.65,0,0,0-.5-.31.65.65,0,0,0-.56.18,1.1,1.1,0,0,0-.28.68,1.1,1.1,0,0,0,.11.73.66.66,0,0,0,.5.31A.65.65,0,0,0,18.88,10.71Z"/><path d="M19.92,7.8l.58,0,.17,1.66a.94.94,0,0,0,.11.4.55.55,0,0,0,.89-.09,1,1,0,0,0,0-.41l-.17-1.66.57-.06.16,1.64a1.4,1.4,0,0,1-.07.68,1,1,0,0,1-.9.53,1,1,0,0,1-1-.34,1.4,1.4,0,0,1-.2-.65Z"/><path d="M23.83,9.75a.55.55,0,0,0,.23.19.6.6,0,0,0,.5-.1,1,1,0,0,0,.26-.2.32.32,0,0,0,.06-.39.23.23,0,0,0-.21-.12,1.29,1.29,0,0,0-.39.08L24,9.29a1.83,1.83,0,0,1-.62.12A.66.66,0,0,1,22.85,9a.78.78,0,0,1-.07-.66,1.14,1.14,0,0,1,.56-.6,1.21,1.21,0,0,1,.75-.17.81.81,0,0,1,.61.4l-.47.27a.39.39,0,0,0-.36-.19.75.75,0,0,0-.33.11.64.64,0,0,0-.26.25.28.28,0,0,0,0,.28.23.23,0,0,0,.22.12,1.64,1.64,0,0,0,.37-.08l.47-.14a1.21,1.21,0,0,1,.5-.06.66.66,0,0,1,.49.36.78.78,0,0,1,.06.68,1.21,1.21,0,0,1-.58.62,1.33,1.33,0,0,1-.85.21.8.8,0,0,1-.6-.42Z"/><path d="M2,2.69a.69.69,0,0,1,.15.41.61.61,0,0,1-.1.4.65.65,0,0,1-.2.16.61.61,0,0,1,.33.22.72.72,0,0,1,.13.39.79.79,0,0,1-.1.44.75.75,0,0,1-.48.38,1.88,1.88,0,0,1-.38.06L.15,5.22,0,2.5l1.31-.07A.83.83,0,0,1,2,2.69ZM.56,3l0,.6.65,0a.54.54,0,0,0,.28-.08.25.25,0,0,0,.1-.25.25.25,0,0,0-.16-.25,1,1,0,0,0-.32,0ZM.62,4l0,.72.66,0a.64.64,0,0,0,.27-.06.34.34,0,0,0,.16-.36A.29.29,0,0,0,1.56,4a.68.68,0,0,0-.27,0Z"/><path d="M4.94,4.66a1.18,1.18,0,0,1-.84.43,1.18,1.18,0,0,1-.92-.2,1.46,1.46,0,0,1-.56-1.05,1.43,1.43,0,0,1,.25-1.16,1.18,1.18,0,0,1,.85-.43,1.18,1.18,0,0,1,.92.19A1.44,1.44,0,0,1,5.2,3.5,1.47,1.47,0,0,1,4.94,4.66ZM4.53,4.3a1.11,1.11,0,0,0,.1-.73,1.11,1.11,0,0,0-.29-.67.65.65,0,0,0-.56-.17.66.66,0,0,0-.5.32,1.1,1.1,0,0,0-.11.73,1.1,1.1,0,0,0,.29.67A.66.66,0,0,0,4,4.62.65.65,0,0,0,4.53,4.3Z"/><path d="M5.89,2.78l.56-.06.22,2.21L8,4.8l0,.49-1.91.19Z"/><path d="M9.06,1.28a.9.9,0,0,1,.5.3A1.21,1.21,0,0,1,9.78,2a2.1,2.1,0,0,1,.1.44,1.8,1.8,0,0,1-.13.92A1,1,0,0,1,8.9,4l-1.16.11-.27-2.7,1.16-.12A1.43,1.43,0,0,1,9.06,1.28Zm-1,.5.17,1.75.52,0a.57.57,0,0,0,.52-.45,1.39,1.39,0,0,0,0-.52,1.27,1.27,0,0,0-.19-.62.55.55,0,0,0-.53-.17Z"/><path d="M2.67,0V.23H2.28V1.33H2V.23H1.6V0Z"/><path d="M3.09,1.52V.2h.28V.7h.51V.2h.28V1.52H3.88V.93H3.36v.59Z"/><path d="M5.47.82h-.7v.28h.64v.23H4.77v.34H5.5v.25h-1V.59h1Z"/></g></g></g></g></svg>