<svg xmlns="http://www.w3.org/2000/svg" viewBox="0 0 101.79 47.29"><title>THE-BOLD-AND-CURIOUS-LOGO</title><g id="Layer_2" data-name="Layer 2"><g id="Layer_1-2" data-name="Layer 1"><path d="M16.72,29.65a5.32,5.32,0,0,1,1.59-1.38l.23-.14A4.5,4.5,0,0,1,17.81,27a2.69,2.69,0,0,1-.26-1.15,2.27,2.27,0,0,1,.8-1.85,3.16,3.16,0,0,1,2.08-.67,2.79,2.79,0,0,1,1.93.68,2.24,2.24,0,0,1,.76,1.75,2.49,2.49,0,0,1-.46,1.56,4.47,4.47,0,0,1-1.34,1.11l1.56,1.89a3.11,3.11,0,0,0,.41-.83,3.22,3.22,0,0,0,.15-.95h1.86a5.93,5.93,0,0,1-.48,2,5.67,5.67,0,0,1-.76,1.25l2,2.35H23.52l-.75-.92a4.75,4.75,0,0,1-1,.75,4.21,4.21,0,0,1-2,.44,3.45,3.45,0,0,1-2.6-1,3,3,0,0,1-.94-2.16A2.87,2.87,0,0,1,16.72,29.65Zm2,2.6a1.54,1.54,0,0,0,1.14.45,2.17,2.17,0,0,0,1-.24,3,3,0,0,0,.76-.53l-2-2.47a3.68,3.68,0,0,0-1.05.92,1.59,1.59,0,0,0-.26.88A1.38,1.38,0,0,0,18.77,32.25Zm.92-5.81a9.14,9.14,0,0,0,.59.76,4,4,0,0,0,.66-.52,1.23,1.23,0,0,0,.38-.86.9.9,0,0,0-.23-.6.87.87,0,0,0-.69-.27,1,1,0,0,0-.54.16.78.78,0,0,0-.38.72A1.13,1.13,0,0,0,19.7,26.44Z"/><path d="M30.44,28a4.46,4.46,0,0,1,3.23-1.57A4.49,4.49,0,0,1,37.75,28a3.92,3.92,0,0,1,.88,2l-2.26.16A3.09,3.09,0,0,0,35.73,29a2.23,2.23,0,0,0-1.84-.58,2.21,2.21,0,0,0-1.84,1.13,4.87,4.87,0,0,0-.5,2.86A4.27,4.27,0,0,0,32.48,35a2.31,2.31,0,0,0,1.93.78,2.12,2.12,0,0,0,1.72-.9,3.42,3.42,0,0,0,.47-1.29l2.25-.16a4.89,4.89,0,0,1-1.28,3,4.33,4.33,0,0,1-3,1.32,4.6,4.6,0,0,1-3.74-1.24,6,6,0,0,1-1.61-4A6,6,0,0,1,30.44,28Z"/><path d="M42.89,26.14l2.26.47-1.35,6.52a3.77,3.77,0,0,0-.07,1.65q.22,1,1.57,1.26a1.74,1.74,0,0,0,1.93-.53A3.78,3.78,0,0,0,47.8,34l1.35-6.52,2.26.47-1.36,6.53A5.6,5.6,0,0,1,49,37q-1.34,1.53-4.09,1t-3.38-2.51a5.59,5.59,0,0,1,0-2.75Z"/><path d="M59.33,32.38a2.68,2.68,0,0,1,1,.76,3.37,3.37,0,0,1,.54.92,3,3,0,0,1,.19,1.14,3.25,3.25,0,0,1-.4,1.52,2.18,2.18,0,0,1-1.29,1,2,2,0,0,1,1.06.86,3.57,3.57,0,0,1,.3,1.7v.73a5.42,5.42,0,0,0,.05,1,.9.9,0,0,0,.41.62V43h-2.5q-.1-.36-.14-.58a5.34,5.34,0,0,1-.09-.94v-1A2,2,0,0,0,58.11,39a1.83,1.83,0,0,0-1.29-.35H54.61l0,4.25H52.37l.06-10.85,5.19,0A4.72,4.72,0,0,1,59.33,32.38ZM54.64,34l0,2.91h2.44a2.6,2.6,0,0,0,1.09-.17,1.22,1.22,0,0,0,.65-1.22,1.37,1.37,0,0,0-.61-1.33,2.25,2.25,0,0,0-1-.2Z"/><path d="M66.49,47.08l-2.24.21-1-10.8,2.24-.21Z"/><path d="M76.72,44.66a5.62,5.62,0,0,1-7.05-.88,5.85,5.85,0,0,1-1.08-4.64,5.74,5.74,0,0,1,2.19-4.24,5.62,5.62,0,0,1,7.05.88,5.75,5.75,0,0,1,1.08,4.64A5.87,5.87,0,0,1,76.72,44.66Zm-1.2-1.81a4.44,4.44,0,0,0,1.13-2.71,4.44,4.44,0,0,0-.44-2.9,2.59,2.59,0,0,0-2-1.25,2.62,2.62,0,0,0-2.25.72,4.4,4.4,0,0,0-1.14,2.7,4.4,4.4,0,0,0,.45,2.9,2.62,2.62,0,0,0,2,1.25A2.59,2.59,0,0,0,75.52,42.85Z"/><path d="M79.7,31.18,82,31l.68,6.63a3.77,3.77,0,0,0,.43,1.6,2.2,2.2,0,0,0,3.55-.36,3.78,3.78,0,0,0,.1-1.65l-.68-6.63,2.29-.23L89,36.93a5.6,5.6,0,0,1-.26,2.73q-.82,1.86-3.61,2.14t-4-1.37a5.59,5.59,0,0,1-.81-2.62Z"/><path d="M95.34,39a2.2,2.2,0,0,0,.91.76,2.4,2.4,0,0,0,2-.39,4.15,4.15,0,0,0,1.06-.82A1.26,1.26,0,0,0,99.54,37a.93.93,0,0,0-.83-.48,5.16,5.16,0,0,0-1.56.31L96,37.15a7.32,7.32,0,0,1-2.48.47,2.64,2.64,0,0,1-2.12-1.48,3.12,3.12,0,0,1-.28-2.63,4.57,4.57,0,0,1,2.25-2.41,4.83,4.83,0,0,1,3-.69A3.23,3.23,0,0,1,98.82,32l-1.89,1.09a1.55,1.55,0,0,0-1.45-.77,3,3,0,0,0-1.31.44,2.57,2.57,0,0,0-1.06,1,1.12,1.12,0,0,0,0,1.12.93.93,0,0,0,.89.49,6.56,6.56,0,0,0,1.47-.33l1.87-.56a4.84,4.84,0,0,1,2-.26,2.65,2.65,0,0,1,1.95,1.43,3.11,3.11,0,0,1,.24,2.71,4.85,4.85,0,0,1-2.32,2.47,5.31,5.31,0,0,1-3.4.85,3.2,3.2,0,0,1-2.39-1.69Z"/><path d="M8.1,10.75a2.76,2.76,0,0,1,.59,1.63A2.42,2.42,0,0,1,8.28,14a2.59,2.59,0,0,1-.79.66,2.42,2.42,0,0,1,1.3.89,2.87,2.87,0,0,1,.51,1.56,3.17,3.17,0,0,1-.39,1.75A3,3,0,0,1,7,20.37a7.51,7.51,0,0,1-1.52.23L.6,20.87,0,10l5.23-.29A3.33,3.33,0,0,1,8.1,10.75ZM2.26,11.8l.13,2.39L5,14a2.18,2.18,0,0,0,1.13-.33,1,1,0,0,0,.39-1,1,1,0,0,0-.64-1,4.08,4.08,0,0,0-1.29-.1ZM2.49,16l.16,2.89,2.63-.14a2.56,2.56,0,0,0,1.09-.25A1.37,1.37,0,0,0,7,17.08,1.16,1.16,0,0,0,6.25,16a2.74,2.74,0,0,0-1.09-.12Z"/><path d="M19.76,18.66a4.73,4.73,0,0,1-3.35,1.73,4.73,4.73,0,0,1-3.69-.78,5.85,5.85,0,0,1-2.23-4.22,5.74,5.74,0,0,1,1-4.65A4.73,4.73,0,0,1,14.88,9a4.73,4.73,0,0,1,3.69.78A5.75,5.75,0,0,1,20.8,14,5.87,5.87,0,0,1,19.76,18.66Zm-1.62-1.45a4.44,4.44,0,0,0,.41-2.91,4.44,4.44,0,0,0-1.16-2.69,2.59,2.59,0,0,0-2.25-.7,2.62,2.62,0,0,0-2,1.27,4.4,4.4,0,0,0-.42,2.91,4.4,4.4,0,0,0,1.17,2.69,2.62,2.62,0,0,0,2.26.7A2.59,2.59,0,0,0,18.14,17.21Z"/><path d="M23.57,11.1l2.25-.23.89,8.85,5.39-.54.19,1.94-7.64.77Z"/><path d="M36.22,5.11a3.58,3.58,0,0,1,2,1.19A4.84,4.84,0,0,1,39.13,8a8.41,8.41,0,0,1,.38,1.77A7.2,7.2,0,0,1,39,13.46a3.92,3.92,0,0,1-3.42,2.37l-4.65.45L29.87,5.49,34.52,5A5.71,5.71,0,0,1,36.22,5.11Zm-4,2,.69,7L35,14a2.26,2.26,0,0,0,2.08-1.79,5.57,5.57,0,0,0,.14-2.09,5.09,5.09,0,0,0-.76-2.48,2.2,2.2,0,0,0-2.14-.68Z"/><path d="M10.68,0V.94H9.1V5.3H8V.94H6.39V0Z"/><path d="M12.35,6.09V.79h1.1v2h2.06v-2h1.1v5.3h-1.1V3.73H13.45V6.09Z"/><path d="M21.89,3.29H19.09V4.42h2.58v.92H19.09V6.7H22v1H18V2.36h3.89Z"/></g></g></svg>